<svg width="40" height="40" viewBox="0 0 40 40" fill="none" xmlns="http://www.w3.org/2000/svg">
<g clip-path="url(#clip0_194_11)">
<circle cx="20" cy="20" r="20" fill="#A4A4A4"/>
<path d="M17.931 26.8275C17.9308 27.2637 17.8106 27.6914 17.5838 28.0639C17.3569 28.4364 17.032 28.7394 16.6446 28.9397C16.2572 29.1401 15.8222 29.2301 15.3871 29.1999C14.952 29.1697 14.5335 29.0205 14.1775 28.7686C13.8214 28.5167 13.5415 28.1718 13.3682 27.7715C13.1949 27.3713 13.135 26.9311 13.195 26.4991C13.2549 26.0671 13.4325 25.6599 13.7083 25.322C13.984 24.9841 14.3474 24.7284 14.7586 24.5831V10.9655C14.7586 10.7551 14.8421 10.5534 14.9909 10.4047C15.1396 10.2559 15.3413 10.1724 15.5517 10.1724C15.762 10.1724 15.9637 10.2559 16.1125 10.4047C16.2612 10.5534 16.3448 10.7551 16.3448 10.9655V24.5831C16.8089 24.7471 17.2106 25.0511 17.4947 25.4531C17.7788 25.8551 17.9312 26.3353 17.931 26.8275Z" fill="#141414"/>
<path d="M11.5862 10.9655C11.5862 9.9138 12.004 8.90515 12.7477 8.16147C13.4914 7.41779 14.5 7 15.5517 7C16.6034 7 17.6121 7.41779 18.3558 8.16147C19.0994 8.90515 19.5172 9.9138 19.5172 10.9655V22.9414C20.2823 23.7222 20.7998 24.7116 21.0049 25.7854C21.21 26.8592 21.0934 27.9696 20.6699 28.9775C20.2464 29.9853 19.5348 30.8457 18.6243 31.4507C17.7138 32.0557 16.6449 32.3785 15.5517 32.3785C14.4585 32.3785 13.3897 32.0557 12.4791 31.4507C11.5686 30.8457 10.857 29.9853 10.4335 28.9775C10.01 27.9696 9.89349 26.8592 10.0985 25.7854C10.3036 24.7116 10.8211 23.7222 11.5862 22.9414V10.9655ZM15.5517 8.58621C14.9207 8.58621 14.3155 8.83688 13.8693 9.28309C13.4231 9.7293 13.1724 10.3345 13.1724 10.9655V23.6346L12.9075 23.8725C12.3088 24.4079 11.8868 25.1124 11.6974 25.8929C11.5079 26.6734 11.5598 27.493 11.8464 28.2433C12.1329 28.9935 12.6406 29.6391 13.3021 30.0946C13.9636 30.5501 14.7478 30.794 15.5509 30.794C16.3541 30.794 17.1383 30.5501 17.7998 30.0946C18.4613 29.6391 18.9689 28.9935 19.2555 28.2433C19.542 27.493 19.594 26.6734 19.4045 25.8929C19.215 25.1124 18.793 24.4079 18.1943 23.8725L17.931 23.633V10.9655C17.931 10.3345 17.6804 9.7293 17.2342 9.28309C16.7879 8.83688 16.1828 8.58621 15.5517 8.58621ZM23.4828 10.1724C23.6931 10.1724 23.8948 10.256 24.0436 10.4047C24.1923 10.5534 24.2759 10.7552 24.2759 10.9655V12.5517C24.2759 12.7621 24.1923 12.9638 24.0436 13.1125C23.8948 13.2613 23.6931 13.3448 23.4828 13.3448C23.2724 13.3448 23.0707 13.2613 22.922 13.1125C22.7732 12.9638 22.6897 12.7621 22.6897 12.5517V10.9655C22.6897 10.7552 22.7732 10.5534 22.922 10.4047C23.0707 10.256 23.2724 10.1724 23.4828 10.1724ZM30.213 12.9594C30.3617 13.1081 30.4452 13.3098 30.4452 13.5201C30.4452 13.7304 30.3617 13.9321 30.213 14.0808L29.0916 15.2039C28.9427 15.3528 28.7407 15.4364 28.5301 15.4364C28.3195 15.4364 28.1175 15.3528 27.9686 15.2039C27.8196 15.0549 27.736 14.853 27.736 14.6423C27.736 14.4317 27.8196 14.2298 27.9686 14.0808L29.0916 12.9594C29.2403 12.8107 29.442 12.7272 29.6523 12.7272C29.8626 12.7272 30.0643 12.8107 30.213 12.9594ZM22.6897 15.7241C22.6897 15.5138 22.7732 15.3121 22.922 15.1633C23.0707 15.0146 23.2724 14.931 23.4828 14.931C24.7448 14.931 25.9552 15.4324 26.8476 16.3248C27.74 17.2172 28.2414 18.4276 28.2414 19.6897C28.2414 20.9517 27.74 22.1621 26.8476 23.0545C25.9552 23.9469 24.7448 24.4483 23.4828 24.4483C23.2724 24.4483 23.0707 24.3647 22.922 24.216C22.7732 24.0672 22.6897 23.8655 22.6897 23.6552C22.6897 23.4448 22.7732 23.2431 22.922 23.0944C23.0707 22.9456 23.2724 22.8621 23.4828 22.8621C24.3241 22.8621 25.1311 22.5278 25.726 21.9329C26.3209 21.3379 26.6552 20.531 26.6552 19.6897C26.6552 18.8483 26.3209 18.0414 25.726 17.4464C25.1311 16.8515 24.3241 16.5172 23.4828 16.5172C23.2724 16.5172 23.0707 16.4337 22.922 16.2849C22.7732 16.1362 22.6897 15.9345 22.6897 15.7241ZM29.8276 19.6897C29.8276 19.4793 29.9111 19.2776 30.0599 19.1288C30.2086 18.9801 30.4103 18.8966 30.6207 18.8966H32.2069C32.4172 18.8966 32.619 18.9801 32.7677 19.1288C32.9164 19.2776 33 19.4793 33 19.6897C33 19.9 32.9164 20.1017 32.7677 20.2505C32.619 20.3992 32.4172 20.4828 32.2069 20.4828H30.6207C30.4103 20.4828 30.2086 20.3992 30.0599 20.2505C29.9111 20.1017 29.8276 19.9 29.8276 19.6897ZM27.9686 24.1754C28.0422 24.1016 28.1297 24.043 28.2261 24.003C28.3225 23.963 28.4257 23.9424 28.5301 23.9424C28.6344 23.9424 28.7377 23.963 28.834 24.003C28.9304 24.043 29.0179 24.1016 29.0916 24.1754L30.213 25.2985C30.3575 25.4481 30.4374 25.6484 30.4356 25.8564C30.4338 26.0643 30.3504 26.2632 30.2034 26.4103C30.0563 26.5573 29.8574 26.6407 29.6495 26.6425C29.4415 26.6443 29.2412 26.5644 29.0916 26.4199L27.9686 25.2985C27.8947 25.2248 27.8361 25.1373 27.7961 25.0409C27.7561 24.9446 27.7355 24.8413 27.7355 24.737C27.7355 24.6326 27.7561 24.5293 27.7961 24.433C27.8361 24.3366 27.8947 24.2491 27.9686 24.1754ZM23.4828 26.0345C23.6931 26.0345 23.8948 26.118 24.0436 26.2668C24.1923 26.4155 24.2759 26.6172 24.2759 26.8276V28.4138C24.2759 28.6241 24.1923 28.8259 24.0436 28.9746C23.8948 29.1233 23.6931 29.2069 23.4828 29.2069C23.2724 29.2069 23.0707 29.1233 22.922 28.9746C22.7732 28.8259 22.6897 28.6241 22.6897 28.4138V26.8276C22.6897 26.6172 22.7732 26.4155 22.922 26.2668C23.0707 26.118 23.2724 26.0345 23.4828 26.0345Z" fill="#141414"/>
</g>
<defs>
<clipPath id="clip0_194_11">
<rect width="40" height="40" fill="white"/>
</clipPath>
</defs>
</svg>
