<svg width="14" height="19" viewBox="0 0 14 19" fill="none" xmlns="http://www.w3.org/2000/svg">
<path d="M7 19C8.85652 19 10.637 18.2493 11.9497 16.9131C13.2625 15.5769 14 13.7647 14 11.875C14 9.90969 12.691 8.4265 11.1627 6.69513C9.62967 4.959 7.875 2.97231 7 0C7 0 0 6.75212 0 11.875C0 13.7647 0.737498 15.5769 2.05025 16.9131C3.36301 18.2493 5.14348 19 7 19ZM5.42033 5.51712L6.24633 6.35788C5.908 6.70225 4.93033 7.91469 4.0215 9.766L2.9785 9.234C3.93517 7.28531 4.98167 5.96481 5.42033 5.51712Z" fill="#3D3D3D"/>
</svg>
