<svg width="19" height="17" viewBox="0 0 19 17" fill="none" xmlns="http://www.w3.org/2000/svg">
<path d="M14.8437 1.21429C14.0564 1.21429 13.3013 1.53412 12.7445 2.10343C12.1878 2.67273 11.875 3.44488 11.875 4.25C11.875 4.41103 11.8124 4.56545 11.7011 4.67932C11.5897 4.79318 11.4387 4.85714 11.2812 4.85714C11.1238 4.85714 10.9728 4.79318 10.8614 4.67932C10.7501 4.56545 10.6875 4.41103 10.6875 4.25C10.6875 3.40943 10.9313 2.58774 11.388 1.88883C11.8446 1.18992 12.4938 0.645186 13.2532 0.323514C14.0127 0.00184145 14.8484 -0.0823227 15.6546 0.0816645C16.4608 0.245652 17.2014 0.650425 17.7827 1.2448C18.3639 1.83917 18.7598 2.59645 18.9201 3.42087C19.0805 4.24529 18.9982 5.09982 18.6836 5.87641C18.369 6.65299 17.8363 7.31675 17.1528 7.78375C16.4693 8.25074 15.6658 8.5 14.8437 8.5H0.59375C0.436278 8.5 0.285255 8.43603 0.173905 8.32217C0.0625556 8.20831 0 8.05388 0 7.89286C0 7.73183 0.0625556 7.5774 0.173905 7.46354C0.285255 7.34968 0.436278 7.28571 0.59375 7.28571H14.8437C15.6311 7.28571 16.3862 6.96588 16.943 6.39657C17.4997 5.82727 17.8125 5.05512 17.8125 4.25C17.8125 3.44488 17.4997 2.67273 16.943 2.10343C16.3862 1.53412 15.6311 1.21429 14.8437 1.21429ZM6.53125 2.42857C6.2163 2.42857 5.91426 2.55651 5.69156 2.78423C5.46886 3.01195 5.34375 3.32081 5.34375 3.64286C5.34375 3.80388 5.28119 3.95831 5.16984 4.07217C5.05849 4.18603 4.90747 4.25 4.75 4.25C4.59253 4.25 4.4415 4.18603 4.33016 4.07217C4.21881 3.95831 4.15625 3.80388 4.15625 3.64286C4.15625 3.16253 4.29554 2.69299 4.55651 2.29362C4.81748 1.89424 5.1884 1.58296 5.62238 1.39915C6.05635 1.21534 6.53388 1.16724 6.99459 1.26095C7.45529 1.35466 7.87848 1.58596 8.21063 1.9256C8.54278 2.26524 8.76897 2.69797 8.86061 3.16907C8.95225 3.64016 8.90522 4.12847 8.72546 4.57223C8.54571 5.016 8.24129 5.39529 7.85073 5.66214C7.46016 5.929 7.00098 6.07143 6.53125 6.07143H0.59375C0.436278 6.07143 0.285255 6.00746 0.173905 5.8936C0.0625556 5.77974 0 5.62531 0 5.46429C0 5.30326 0.0625556 5.14883 0.173905 5.03497C0.285255 4.92111 0.436278 4.85714 0.59375 4.85714H6.53125C6.84619 4.85714 7.14824 4.72921 7.37094 4.50149C7.59364 4.27376 7.71875 3.96491 7.71875 3.64286C7.71875 3.32081 7.59364 3.01195 7.37094 2.78423C7.14824 2.55651 6.84619 2.42857 6.53125 2.42857ZM0 10.3214C0 10.1604 0.0625556 10.006 0.173905 9.89211C0.285255 9.77825 0.436278 9.71429 0.59375 9.71429H12.5186C13.2232 9.71429 13.912 9.92794 14.4978 10.3282C15.0837 10.7285 15.5403 11.2974 15.8099 11.9631C16.0796 12.6287 16.1501 13.3612 16.0127 14.0678C15.8752 14.7745 15.5359 15.4236 15.0377 15.933C14.5395 16.4425 13.9047 16.7894 13.2136 16.93C12.5226 17.0706 11.8063 16.9984 11.1553 16.7227C10.5044 16.447 9.94797 15.9801 9.55651 15.381C9.16506 14.7819 8.95612 14.0776 8.95612 13.3571C8.95612 13.1961 9.01868 13.0417 9.13003 12.9278C9.24138 12.814 9.3924 12.75 9.54987 12.75C9.70735 12.75 9.85837 12.814 9.96972 12.9278C10.0811 13.0417 10.1436 13.1961 10.1436 13.3571C10.1436 13.8375 10.2829 14.307 10.5439 14.7064C10.8049 15.1058 11.1758 15.417 11.6098 15.6008C12.0437 15.7847 12.5213 15.8328 12.982 15.739C13.4427 15.6453 13.8659 15.414 14.198 15.0744C14.5302 14.7348 14.7563 14.302 14.848 13.8309C14.9396 13.3598 14.8926 12.8715 14.7128 12.4278C14.5331 11.984 14.2287 11.6047 13.8381 11.3379C13.4475 11.071 12.9884 10.9286 12.5186 10.9286H0.59375C0.436278 10.9286 0.285255 10.8646 0.173905 10.7507C0.0625556 10.6369 0 10.4825 0 10.3214Z" fill="#3D3D3D"/>
</svg>
